<svg xmlns="http://www.w3.org/2000/svg" width="12" height="12"><path data-name="Forma 1 копия 7" d="M11.735 5.44a.935.935 0 00.218-.93.877.877 0 00-.695-.61l-2.9-.44a.391.391 0 01-.286-.21L6.772.5A.844.844 0 005.23.5l-1.3 2.75a.391.391 0 01-.286.21l-2.9.44a.873.873 0 00-.695.62.925.925 0 00.218.92l2.1 2.13a.435.435 0 01.109.36l-.5 3.01a.9.9 0 00.187.73.837.837 0 001.06.22l2.6-1.42a.369.369 0 01.353 0l2.6 1.42a.825.825 0 00.4.11.84.84 0 00.66-.33.9.9 0 00.188-.73l-.5-3.01a.435.435 0 01.109-.36z" fill="#fac917" fill-rule="evenodd"/></svg>